<?xml version="1.0" encoding="UTF-8"?>
<svg version="1.1" viewBox="0 0 2048 550" width="2630" height="707" xmlns="http://www.w3.org/2000/svg">
<path transform="translate(72,1)" d="m0 0h190l29 3 24 5 20 6 19 8 16 10 14 12 11 12 8 13 6 12 6 18 3 14 2 20v21l-3 25-4 15-6 16-10 18-9 12-18 18-16 11-17 9-21 8-25 6-22 3-13 1h-232l-10-27-6-15-6-17-1-3 244-1 26-3 17-5 9-4 9-5 9-7 9-10 4-7 5-10 5-21v-35l-4-16-7-14-7-9-8-7-16-8-16-5-19-3-10-1h-65l-3 59-2 51-2 44-1 3h-98l-1-12-2-63-2-43-1-41-2-44z" fill="#9ACFA0"/>
<path transform="translate(504,108)" d="m0 0h121l27 4 20 6 16 8 12 9 9 9 8 13 6 14 3 13 1 9v25l-2 14-5 16-8 16-8 10-10 10-14 9-15 7-16 5-23 4-16 1h-54v122l-1 1h-50l-1-1zm52 41v119h63l20-4 16-8 8-7 7-9 5-14 2-13v-14l-3-16-5-10-9-10-10-6-10-4-15-3-8-1z" fill="#080605"/>
<path transform="translate(1243,81)" d="m0 0h51v99l-1 30-1 11 8-7 13-11 13-8 15-7 17-4h27l16 4 13 7 10 9 7 9 6 12 5 16 2 10 1 11v171h-50l-1-1-1-164-3-15-7-14-7-6-11-4-13-1-15 2-16 8-11 8-12 11-3 3-1 172-1 1h-49l-1-1z" fill="#080706"/>
<path transform="translate(1581,184)" d="m0 0h32l15 3 14 5 14 9 10 10 8 13 6 14 4 17 2 14v164h-41l-2-7-3-18h-3l-11 9-15 9-13 6-17 5-21 2-17-2-13-4-13-7-12-11-7-11-4-8-3-11-1-7v-21l3-16 5-14 7-11 9-10 10-7 12-6 21-6 29-5 30-3 19-1-1-14-4-14-5-9-4-5-9-6-10-3-7-1h-12l-15 2-20 6-21 10-9 6h-3l-14-34 1-4 18-10 19-8 19-6zm53 127-50 6-17 4-14 7-9 9-5 12v23l4 12 5 6 8 5 10 3h22l14-4 14-7 12-9 7-6v-61z" fill="#060303"/>
<path transform="translate(1960,184)" d="m0 0h27l16 4 12 6 11 9 8 11 7 15 5 20 2 20v163l-1 1h-50l-1-159-3-19-5-12-8-9-9-4-13-2-18 2-14 6-14 10-15 14-1 173h-50v-243h41l2 10 2 16v7l6-4 7-7 16-12 14-8 13-5z" fill="#060303"/>
<path transform="translate(889,123)" d="m0 0h43v67h63v41h-63l1 129 2 15 6 12 7 6 13 4h12l17-4 4-1 9 36v2l-16 5-17 3-16 1-14-1-16-4-16-8-11-11-8-14-5-16-2-11-1-16v-127h-34l-1-1v-38l29-2h9v-11z" fill="#060403"/>
<path transform="translate(1116,184)" d="m0 0h29l15 3 16 6 15 9 10 8v4l-14 18-9 12-5-2-11-8-11-5-7-2h-22l-16 5-10 6-10 9-8 10-8 17-5 21v34l5 21 8 16 8 11 9 8 16 8 14 3h14l14-3 16-7 14-10h3l12 19 7 11v4l-15 11-16 8-13 5-13 3-20 2-17-1-16-3-15-5-17-9-12-9-12-12-10-14-10-21-5-18-3-21v-28l2-16 5-19 7-16 6-11 10-13 13-13 13-9 17-9 20-6z" fill="#060303"/>
<path transform="translate(766,190)" d="m0 0h51v243h-50l-1-1z" fill="#070504"/>
<path transform="translate(1739,190)" d="m0 0h50v243h-50z" fill="#040101"/>
<path transform="translate(84,310)" d="m0 0h89l1 1v20l-2 42-1 27-1 9h-83l-1-9-2-64-1-25z" fill="#9ACFA0"/>
<path transform="translate(123,452)" d="m0 0h11l9 2 9 4 6 4 11 11 6 12 2 9v13l-3 11-5 10-9 10-13 8-10 3h-17l-12-4-11-7-7-7-6-10-3-9-1-5v-14l4-13 6-9 6-7 10-7 10-4z" fill="#9ACFA0"/>
<path transform="translate(1738,87)" d="m0 0h52l1 1v53l-1 1h-52z" fill="#0B0908"/>
<path transform="translate(766,87)" d="m0 0h52v55h-52z" fill="#040101"/>
</svg>
