<?xml version="1.0" encoding="UTF-8"?>
<svg version="1.1" xmlns="http://www.w3.org/2000/svg" width="512" height="512" viewBox="0 0 512 512">
<path d="M0 0 C0.84416473 -0.00137466 1.68832947 -0.00274933 2.55807495 -0.00416565 C3.48595825 -0.00057037 4.41384155 0.0030249 5.36984253 0.00672913 C6.34549164 0.0065831 7.32114075 0.00643707 8.32635498 0.00628662 C11.56206459 0.00698516 14.79771715 0.01477485 18.03341675 0.02259827 C20.27258269 0.02446265 22.51174903 0.02588646 24.75091553 0.02688599 C30.65283326 0.03070953 36.55472649 0.04053845 42.45663452 0.05158997 C48.47571481 0.06180757 54.49479904 0.06638436 60.5138855 0.07142639 C72.33030253 0.08216084 84.14670135 0.09923533 95.96310425 0.12025452 C95.96310425 5.40025452 95.96310425 10.68025452 95.96310425 16.12025452 C51.41310425 16.61525452 51.41310425 16.61525452 5.96310425 17.12025452 C2.33310425 25.59712952 -1.29689575 34.07400452 -5.03689575 42.80775452 C-12.49401966 60.21312542 -19.95844734 77.61518425 -27.47439575 94.99525452 C-27.8102771 95.77242828 -28.14615845 96.54960205 -28.49221802 97.35032654 C-29.42173781 99.50051843 -30.35213708 101.65032676 -31.2829895 103.79994202 C-31.79531128 104.98314026 -32.30763306 106.1663385 -32.83547974 107.38539124 C-33.53552116 108.97894215 -34.25850478 110.56347257 -35.03689575 112.12025452 C109.50310425 112.12025452 254.04310425 112.12025452 402.96310425 112.12025452 C399.00310425 103.21025452 395.04310425 94.30025452 390.96310425 85.12025452 C388.95025034 80.47300279 386.94458878 75.82665114 384.97091675 71.16322327 C384.49161713 70.03604385 384.0123175 68.90886444 383.51849365 67.74752808 C382.03962729 64.26847826 380.5637418 60.78817485 379.08810425 57.30775452 C377.59031011 53.78123176 376.09189189 50.25497461 374.59344482 46.72872925 C373.67569659 44.56838195 372.75843338 42.40782851 371.84179688 40.24700928 C368.56745831 32.52993188 365.26539609 24.82560215 361.96310425 17.12025452 C332.26310425 16.79025452 302.56310425 16.46025452 271.96310425 16.12025452 C271.96310425 10.84025452 271.96310425 5.56025452 271.96310425 0.12025452 C284.93234074 0.02764561 297.9014988 -0.04346438 310.87099838 -0.08699417 C316.89302993 -0.10788447 322.91483555 -0.13622891 328.93673706 -0.1815033 C334.74631221 -0.22490888 340.55566982 -0.24887172 346.36539459 -0.25925446 C348.58382849 -0.26665528 350.80225025 -0.28110705 353.02059174 -0.30266571 C356.12376296 -0.33162883 359.22603093 -0.33570438 362.32931519 -0.33384705 C363.25000793 -0.34822815 364.17070068 -0.36260925 365.11929321 -0.37742615 C371.31869828 -0.33717601 371.31869828 -0.33717601 374.4276886 1.86973572 C375.93214804 4.0748808 377.1112162 6.13042885 378.1635437 8.58265686 C378.74368225 9.91531082 378.74368225 9.91531082 379.33554077 11.27488708 C379.74501953 12.24221771 380.15449829 13.20954834 380.5763855 14.20619202 C381.01929932 15.23144989 381.46221313 16.25670776 381.91854858 17.31303406 C383.38020514 20.70318961 384.82799634 24.09907914 386.27560425 27.49525452 C387.28942357 29.85495091 388.30400158 32.21432148 389.31930542 34.57337952 C391.99684198 40.80266372 394.66166352 47.03729156 397.32199097 53.27394104 C398.9658423 57.12760138 400.61269055 60.97997658 402.25997925 64.83216858 C407.36715608 76.77719996 412.46491284 88.72623031 417.5451355 100.68275452 C417.96492676 101.66998505 418.38471802 102.65721558 418.81723022 103.67436218 C419.20415039 104.58592072 419.59107056 105.49747925 419.98971558 106.43666077 C420.32449417 107.22500305 420.65927277 108.01334534 421.00419617 108.82557678 C423.34577161 114.42899293 424.54431472 118.01754456 423.96310425 124.12025452 C422.43044281 126.33488798 422.43044281 126.33488798 419.96310425 128.12025452 C417.21164234 128.51232713 414.86073185 128.65815939 412.11068726 128.62361908 C410.9101932 128.63233972 410.9101932 128.63233972 409.68544674 128.64123654 C406.98668194 128.65590787 404.2888165 128.64191839 401.59005737 128.62818909 C399.6425454 128.63279519 397.69503689 128.63914614 395.74753571 128.64709806 C390.38265874 128.66385447 385.01806501 128.65551639 379.6531868 128.64315319 C373.87260227 128.63413078 368.09206764 128.64805843 362.31149292 128.65907288 C350.98211908 128.67689277 339.65285102 128.67300267 328.32347298 128.66142231 C319.11878717 128.6524019 309.91413109 128.65115795 300.70944214 128.65551758 C299.40116848 128.65613051 298.09289483 128.65674344 296.74497652 128.65737495 C294.08754157 128.6586538 291.43010663 128.65995066 288.7726717 128.66126531 C264.54437776 128.67275779 240.31613739 128.66083951 216.0878526 128.63989493 C193.96030136 128.62091184 171.83284219 128.62261032 149.70529175 128.64173889 C124.85695717 128.66314758 100.00867425 128.67158255 75.16033173 128.65928984 C72.51247661 128.65801559 69.86462149 128.65675811 67.21676636 128.65551758 C65.26239049 128.65459192 65.26239049 128.65459192 63.26853228 128.65364757 C54.07108864 128.65018868 44.8736776 128.6560346 35.67623901 128.66543579 C24.47308949 128.67663501 13.27005212 128.67365953 2.06691551 128.65231282 C-3.65302328 128.64177442 -9.37277484 128.637728 -15.0927124 128.65090942 C-20.32342243 128.66278145 -25.55377072 128.65635683 -30.78444767 128.63499922 C-32.68209505 128.63051105 -34.57977265 128.63284863 -36.47740078 128.64250237 C-39.04686806 128.65457665 -41.61507837 128.64228375 -44.18447876 128.62361908 C-45.30287817 128.63766608 -45.30287817 128.63766608 -46.4438715 128.65199685 C-49.84140656 128.60229441 -51.72549845 128.34914747 -54.49568939 126.31291533 C-56.84101635 122.97623918 -56.70424869 119.9861289 -56.03689575 116.12025452 C-54.90673329 112.45594577 -53.40345454 108.99767869 -51.84939575 105.49525452 C-51.40360168 104.45888351 -50.95780762 103.42251251 -50.49850464 102.35473633 C-49.02479603 98.93722419 -47.53098993 95.52889758 -46.03689575 92.12025452 C-45.00457424 89.73747712 -43.97367174 87.3540845 -42.94412231 84.97010803 C-41.32976382 81.23383658 -39.71351431 77.49841924 -38.0899353 73.7661438 C-34.39465127 65.2712937 -30.73673429 56.76128862 -27.10795593 48.23781967 C-26.27775454 46.28782751 -25.44692371 44.3381048 -24.61587524 42.38847351 C-24.34535088 41.75380472 -24.07482651 41.11913593 -23.79610443 40.46523476 C-23.52751869 39.83512175 -23.25893295 39.20500874 -22.98220825 38.55580139 C-21.39048086 34.82140486 -19.79917452 31.08683188 -18.20974731 27.35145569 C-16.73386062 23.88611678 -15.25319362 20.42285932 -13.77127075 16.96009827 C-13.33474182 15.93230759 -12.89821289 14.90451691 -12.44845581 13.84558105 C-12.0416156 12.89715836 -11.63477539 11.94873566 -11.21560669 10.97157288 C-10.86528381 10.15071701 -10.51496094 9.32986115 -10.15402222 8.48413086 C-6.14093419 -0.00769541 -6.14093419 -0.00769541 0 0 Z "  transform="translate(72.03689575195313,375.87974548339844)"/>
<path d="M0 0 C1.24245483 -0.00717545 1.24245483 -0.00717545 2.51000977 -0.01449585 C4.25832014 -0.01789283 6.0066942 -0.00870432 7.75488281 0.01220703 C10.42917664 0.03897918 13.09927402 0.01245635 15.7734375 -0.01953125 C17.47396759 -0.01622711 19.17449506 -0.00982078 20.875 0 C21.67301025 -0.01012115 22.47102051 -0.02024231 23.29321289 -0.03067017 C27.20163776 0.0517294 29.03942538 0.29412871 31.94824219 2.99731445 C33.83286896 6.37203219 33.84264878 8.63663017 33.6875 12.4765625 C33.65140625 13.63800781 33.6153125 14.79945312 33.578125 15.99609375 C33.53171875 16.87652344 33.4853125 17.75695312 33.4375 18.6640625 C38.8825 20.1490625 38.8825 20.1490625 44.4375 21.6640625 C46.17 19.6840625 46.17 19.6840625 47.9375 17.6640625 C52.62237913 13.03691955 52.62237913 13.03691955 56.4375 12.7265625 C59.8593341 13.21312318 61.62255819 14.39537825 64.16015625 16.703125 C64.85512207 17.33452393 65.55008789 17.96592285 66.26611328 18.61645508 C69.86440436 22.00962657 73.38764295 25.46970485 76.875 28.9765625 C77.95297852 30.04874023 77.95297852 30.04874023 79.05273438 31.14257812 C79.73529297 31.82642578 80.41785156 32.51027344 81.12109375 33.21484375 C81.73525146 33.83012939 82.34940918 34.44541504 82.98217773 35.0793457 C85.57542284 37.90315949 85.99691461 40.60443821 86.00390625 44.421875 C84.84414723 49.01292104 80.88050285 51.651435 77.4375 54.6640625 C78.4275 58.2940625 79.4175 61.9240625 80.4375 65.6640625 C81.31792969 65.61765625 82.19835937 65.57125 83.10546875 65.5234375 C84.26691406 65.48734375 85.42835938 65.45125 86.625 65.4140625 C87.77355469 65.36765625 88.92210937 65.32125 90.10546875 65.2734375 C94.25884371 65.76035133 95.59695727 66.60743998 98.4375 69.6640625 C98.94518623 72.70788094 99.14014543 75.18446144 99.1015625 78.2265625 C99.10634613 79.05486572 99.11112976 79.88316895 99.11605835 80.73657227 C99.11945533 82.48488264 99.11026682 84.2332567 99.08935547 85.98144531 C99.06258332 88.65573914 99.08910615 91.32583652 99.12109375 94 C99.11778961 95.70053009 99.11138328 97.40105756 99.1015625 99.1015625 C99.11168365 99.89957275 99.12180481 100.69758301 99.13223267 101.51977539 C99.0498331 105.42820026 98.80743379 107.26598788 96.10424805 110.17480469 C92.72953031 112.05943146 90.46493233 112.06921128 86.625 111.9140625 C85.46355469 111.87796875 84.30210937 111.841875 83.10546875 111.8046875 C82.22503906 111.75828125 81.34460938 111.711875 80.4375 111.6640625 C79.4475 115.2940625 78.4575 118.9240625 77.4375 122.6640625 C79.4175 124.3965625 79.4175 124.3965625 81.4375 126.1640625 C86.06464295 130.84894163 86.06464295 130.84894163 86.375 134.6640625 C85.88843932 138.0858966 84.70618425 139.84912069 82.3984375 142.38671875 C81.45133911 143.42916748 81.45133911 143.42916748 80.48510742 144.49267578 C77.09193593 148.09096686 73.63185765 151.61420545 70.125 155.1015625 C69.05282227 156.17954102 69.05282227 156.17954102 67.95898438 157.27929688 C67.27513672 157.96185547 66.59128906 158.64441406 65.88671875 159.34765625 C64.96379028 160.26889282 64.96379028 160.26889282 64.0222168 161.20874023 C61.19840301 163.80198534 58.49712429 164.22347711 54.6796875 164.23046875 C50.08864146 163.07070973 47.4501275 159.10706535 44.4375 155.6640625 C40.8075 156.6540625 37.1775 157.6440625 33.4375 158.6640625 C33.48390625 159.54449219 33.5303125 160.42492187 33.578125 161.33203125 C33.61421875 162.49347656 33.6503125 163.65492188 33.6875 164.8515625 C33.73390625 166.00011719 33.7803125 167.14867187 33.828125 168.33203125 C33.34121117 172.48540621 32.49412252 173.82351977 29.4375 176.6640625 C26.39368156 177.17174873 23.91710106 177.36670793 20.875 177.328125 C19.63254517 177.33530045 19.63254517 177.33530045 18.36499023 177.34262085 C16.61667986 177.34601783 14.8683058 177.33682932 13.12011719 177.31591797 C10.44582336 177.28914582 7.77572598 177.31566865 5.1015625 177.34765625 C3.40103241 177.34435211 1.70050494 177.33794578 0 177.328125 C-0.79801025 177.33824615 -1.59602051 177.34836731 -2.41821289 177.35879517 C-6.32663776 177.2763956 -8.16442538 177.03399629 -11.07324219 174.33081055 C-12.95786896 170.95609281 -12.96764878 168.69149483 -12.8125 164.8515625 C-12.77640625 163.69011719 -12.7403125 162.52867187 -12.703125 161.33203125 C-12.65671875 160.45160156 -12.6103125 159.57117188 -12.5625 158.6640625 C-16.1925 157.6740625 -19.8225 156.6840625 -23.5625 155.6640625 C-25.295 157.6440625 -25.295 157.6440625 -27.0625 159.6640625 C-31.74737913 164.29120545 -31.74737913 164.29120545 -35.5625 164.6015625 C-38.9843341 164.11500182 -40.74755819 162.93274675 -43.28515625 160.625 C-43.98012207 159.99360107 -44.67508789 159.36220215 -45.39111328 158.71166992 C-48.98940436 155.31849843 -52.51264295 151.85842015 -56 148.3515625 C-57.07797852 147.27938477 -57.07797852 147.27938477 -58.17773438 146.18554688 C-58.86029297 145.50169922 -59.54285156 144.81785156 -60.24609375 144.11328125 C-60.86025146 143.49799561 -61.47440918 142.88270996 -62.10717773 142.2487793 C-64.70042284 139.42496551 -65.12191461 136.72368679 -65.12890625 132.90625 C-63.96914723 128.31520396 -60.00550285 125.67669 -56.5625 122.6640625 C-58.0475 117.2190625 -58.0475 117.2190625 -59.5625 111.6640625 C-60.44292969 111.71046875 -61.32335937 111.756875 -62.23046875 111.8046875 C-63.39191406 111.84078125 -64.55335938 111.876875 -65.75 111.9140625 C-67.47283203 111.98367187 -67.47283203 111.98367187 -69.23046875 112.0546875 C-73.38384371 111.56777367 -74.72195727 110.72068502 -77.5625 107.6640625 C-78.07018623 104.62024406 -78.26514543 102.14366356 -78.2265625 99.1015625 C-78.23134613 98.27325928 -78.23612976 97.44495605 -78.24105835 96.59155273 C-78.24445533 94.84324236 -78.23526682 93.0948683 -78.21435547 91.34667969 C-78.18758332 88.67238586 -78.21410615 86.00228848 -78.24609375 83.328125 C-78.24278961 81.62759491 -78.23638328 79.92706744 -78.2265625 78.2265625 C-78.23668365 77.42855225 -78.24680481 76.63054199 -78.25723267 75.80834961 C-78.1748331 71.89992474 -77.93243379 70.06213712 -75.22924805 67.15332031 C-71.85453031 65.26869354 -69.58993233 65.25891372 -65.75 65.4140625 C-64.58855469 65.45015625 -63.42710937 65.48625 -62.23046875 65.5234375 C-61.35003906 65.56984375 -60.46960938 65.61625 -59.5625 65.6640625 C-58.5725 62.0340625 -57.5825 58.4040625 -56.5625 54.6640625 C-57.8825 53.5090625 -59.2025 52.3540625 -60.5625 51.1640625 C-65.18964295 46.47918337 -65.18964295 46.47918337 -65.5 42.6640625 C-65.01343932 39.2422284 -63.83118425 37.47900431 -61.5234375 34.94140625 C-60.89203857 34.24644043 -60.26063965 33.55147461 -59.61010742 32.83544922 C-56.21693593 29.23715814 -52.75685765 25.71391955 -49.25 22.2265625 C-48.53521484 21.50791016 -47.82042969 20.78925781 -47.08398438 20.04882812 C-46.40013672 19.36626953 -45.71628906 18.68371094 -45.01171875 17.98046875 C-44.39643311 17.36631104 -43.78114746 16.75215332 -43.1472168 16.11938477 C-40.32340301 13.52613966 -37.62212429 13.10464789 -33.8046875 13.09765625 C-29.21364146 14.25741527 -26.5751275 18.22105965 -23.5625 21.6640625 C-18.1175 20.1790625 -18.1175 20.1790625 -12.5625 18.6640625 C-12.60890625 17.78363281 -12.6553125 16.90320313 -12.703125 15.99609375 C-12.73921875 14.83464844 -12.7753125 13.67320313 -12.8125 12.4765625 C-12.85890625 11.32800781 -12.9053125 10.17945312 -12.953125 8.99609375 C-12.01127414 0.9621059 -7.21136468 -0.09146165 0 0 Z M4.4375 16.6640625 C4.06625 18.7059375 4.06625 18.7059375 3.6875 20.7890625 C2.88656976 25.19417881 1.27314687 28.18542229 -1.5625 31.6640625 C-3.95198135 33.30590169 -6.44975428 34.43699192 -9.125 35.5390625 C-9.83446777 35.8378833 -10.54393555 36.1367041 -11.27490234 36.44458008 C-17.02327471 38.72455541 -22.39306806 40.04559341 -28.5625 38.6640625 C-30.98527153 37.55421589 -32.52344511 36.42756943 -34.5625 34.6640625 C-38.37934226 36.21907231 -40.75445732 38.70001745 -43.5625 41.6640625 C-43.27375 42.2415625 -42.985 42.8190625 -42.6875 43.4140625 C-42.31625 44.1565625 -41.945 44.8990625 -41.5625 45.6640625 C-41.05009766 46.57671875 -41.05009766 46.57671875 -40.52734375 47.5078125 C-38.00330267 53.14858447 -38.9007911 59.12689938 -40.91796875 64.80078125 C-41.49226249 66.24067478 -42.08224231 67.67440805 -42.6875 69.1015625 C-42.97036865 69.78766602 -43.2532373 70.47376953 -43.54467773 71.18066406 C-45.6722027 75.85672057 -47.89016694 78.21466341 -52.5625 80.6640625 C-55.55880543 81.63534194 -58.44913831 82.09799674 -61.5625 82.6640625 C-61.5625 86.6240625 -61.5625 90.5840625 -61.5625 94.6640625 C-59.520625 95.0353125 -59.520625 95.0353125 -57.4375 95.4140625 C-53.03238369 96.21499274 -50.04114021 97.82841563 -46.5625 100.6640625 C-44.92066081 103.05354385 -43.78957058 105.55131678 -42.6875 108.2265625 C-42.3886792 108.93603027 -42.0898584 109.64549805 -41.78198242 110.37646484 C-39.50200709 116.12483721 -38.18096909 121.49463056 -39.5625 127.6640625 C-40.67234661 130.08683403 -41.79899307 131.62500761 -43.5625 133.6640625 C-42.00749019 137.48090476 -39.52654505 139.85601982 -36.5625 142.6640625 C-35.985 142.3753125 -35.4075 142.0865625 -34.8125 141.7890625 C-34.07 141.4178125 -33.3275 141.0465625 -32.5625 140.6640625 C-31.9540625 140.32246094 -31.345625 139.98085937 -30.71875 139.62890625 C-25.10374941 137.11639693 -19.13456802 138.0164002 -13.4609375 139.94921875 C-0.34628601 144.96448218 -0.34628601 144.96448218 2.8203125 151.6640625 C3.75883561 154.70535259 4.23866531 157.48270748 4.4375 160.6640625 C8.3975 160.6640625 12.3575 160.6640625 16.4375 160.6640625 C16.685 159.3028125 16.9325 157.9415625 17.1875 156.5390625 C17.98843024 152.13394619 19.60185313 149.14270271 22.4375 145.6640625 C24.82698135 144.02222331 27.32475428 142.89113308 30 141.7890625 C30.70946777 141.4902417 31.41893555 141.1914209 32.14990234 140.88354492 C37.89827471 138.60356959 43.26806806 137.28253159 49.4375 138.6640625 C51.86027153 139.77390911 53.39844511 140.90055557 55.4375 142.6640625 C59.25434226 141.10905269 61.62945732 138.62810755 64.4375 135.6640625 C64.14875 135.0865625 63.86 134.5090625 63.5625 133.9140625 C63.005625 132.8003125 63.005625 132.8003125 62.4375 131.6640625 C62.09589844 131.055625 61.75429688 130.4471875 61.40234375 129.8203125 C58.88983443 124.20531191 59.7898377 118.23613052 61.72265625 112.5625 C66.73791968 99.44784851 66.73791968 99.44784851 73.4375 96.28125 C76.47879009 95.34272689 79.25614498 94.86289719 82.4375 94.6640625 C82.4375 90.7040625 82.4375 86.7440625 82.4375 82.6640625 C81.07625 82.4165625 79.715 82.1690625 78.3125 81.9140625 C73.90738369 81.11313226 70.91614021 79.49970937 67.4375 76.6640625 C65.79566081 74.27458115 64.66457058 71.77680822 63.5625 69.1015625 C63.2636792 68.39209473 62.9648584 67.68262695 62.65698242 66.95166016 C60.37700709 61.20328779 59.05596909 55.83349444 60.4375 49.6640625 C61.54734661 47.24129097 62.67399307 45.70311739 64.4375 43.6640625 C62.88249019 39.84722024 60.40154505 37.47210518 57.4375 34.6640625 C56.86 34.9528125 56.2825 35.2415625 55.6875 35.5390625 C54.945 35.9103125 54.2025 36.2815625 53.4375 36.6640625 C52.8290625 37.00566406 52.220625 37.34726563 51.59375 37.69921875 C45.97874941 40.21172807 40.00956802 39.3117248 34.3359375 37.37890625 C21.22128601 32.36364282 21.22128601 32.36364282 18.0546875 25.6640625 C17.11616439 22.62277241 16.63633469 19.84541752 16.4375 16.6640625 C12.4775 16.6640625 8.5175 16.6640625 4.4375 16.6640625 Z "  transform="translate(245.5625,103.3359375)"/>
<path d="M0 0 C0.6638269 -0.00058411 1.32765381 -0.00116821 2.01159668 -0.00177002 C4.19804832 0.00100891 6.38312356 0.03208829 8.56933594 0.06347656 C10.08818822 0.07093972 11.60705016 0.0766323 13.12591553 0.08062744 C17.11774419 0.09587815 21.10898791 0.13515434 25.10058594 0.17944336 C29.17602628 0.22040867 33.25156142 0.2386411 37.32714844 0.25878906 C45.3196339 0.30164998 53.31153219 0.37199446 61.30371094 0.45410156 C61.30371094 5.73410156 61.30371094 11.01410156 61.30371094 16.45410156 C42.16371094 16.45410156 23.02371094 16.45410156 3.30371094 16.45410156 C2.31371094 19.75410156 1.32371094 23.05410156 0.30371094 26.45410156 C-4.31628906 38.66410156 -8.93628906 50.87410156 -13.69628906 63.45410156 C104.44371094 63.45410156 222.58371094 63.45410156 344.30371094 63.45410156 C338.69371094 48.60410156 333.08371094 33.75410156 327.30371094 18.45410156 C327.30371094 17.79410156 327.30371094 17.13410156 327.30371094 16.45410156 C308.16371094 16.45410156 289.02371094 16.45410156 269.30371094 16.45410156 C269.30371094 11.17410156 269.30371094 5.89410156 269.30371094 0.45410156 C278.10071015 0.3637262 286.89740096 0.29034326 295.69475937 0.24685287 C299.77975463 0.22597945 303.86441578 0.19766693 307.94921875 0.15234375 C311.89145439 0.10887626 315.83336871 0.08496261 319.7758255 0.07459259 C321.27975778 0.06720275 322.78367251 0.05277189 324.28746796 0.03118134 C326.39450553 0.00213344 328.50021622 -0.00185415 330.60742188 0 C331.80655212 -0.00888245 333.00568237 -0.01776489 334.2411499 -0.0269165 C337.93926511 0.55392424 339.04465074 1.52986918 341.30371094 4.45410156 C342.77661133 7.5690918 342.77661133 7.5690918 344.15136719 11.26269531 C344.40476868 11.93354156 344.65817017 12.60438782 344.91925049 13.29556274 C345.74555764 15.4904195 346.55627522 17.69065633 347.36621094 19.89160156 C347.93522327 21.41789516 348.50513904 22.94385224 349.07592773 24.46948242 C349.95141886 26.8103202 350.82590887 29.1514877 351.69599915 31.49433899 C353.60694199 36.63212784 355.58128967 41.74084764 357.60058594 46.83691406 C358.36356533 48.77955735 359.12525445 50.72270095 359.88644409 52.66604614 C360.59891505 54.47274235 361.32529332 56.27393462 362.05200195 58.07495117 C364.53392593 64.46189294 366.24962312 69.5877318 365.30371094 76.45410156 C363.13496135 79.41695475 361.95090404 80.34614011 358.29800415 80.95549822 C357.11088837 80.95614763 355.92377258 80.95679704 354.70068359 80.95746613 C354.03542412 80.96327989 353.37016464 80.96909365 352.68474579 80.97508359 C350.44539015 80.98973456 348.20712191 80.97577586 345.96777344 80.96203613 C344.35024452 80.96664307 342.73271979 80.97299459 341.11520386 80.98094511 C336.66243342 80.99769021 332.21000456 80.98936868 327.75723267 80.97700024 C322.95824839 80.96797318 318.15932404 80.98190779 313.36035156 80.99291992 C303.95604821 81.01073485 294.55187234 81.00685194 285.14756393 80.99526936 C277.50656841 80.98624699 269.86560869 80.98500585 262.22460938 80.98936462 C261.13836462 80.98997756 260.05211987 80.99059049 258.9329586 80.99122199 C256.72648365 80.99250086 254.52000871 80.99379771 252.31353378 80.99511236 C231.60858079 81.00652687 210.90369856 80.9933908 190.19875717 80.97191089 C172.42120631 80.95403913 154.64375991 80.957143 136.86621094 80.97558594 C116.23689045 80.99697727 95.60763203 81.00542815 74.978302 80.99313688 C72.77980551 80.99186265 70.58130901 80.99060516 68.3828125 80.98936462 C67.30102407 80.98874752 66.21923565 80.98813042 65.10466576 80.98749462 C57.47015268 80.9840365 49.83567887 80.98987999 42.20117188 80.99928284 C32.90109954 81.01048492 23.6011623 81.00750056 14.3011055 80.98615986 C9.55328178 80.97562528 4.80568354 80.97156847 0.05786133 80.98475647 C-4.28467251 80.99663654 -8.6267709 80.99019078 -12.96926498 80.96884626 C-14.54389895 80.9643615 -16.11856937 80.96668825 -17.69318008 80.97634941 C-19.82707015 80.98844228 -21.95945161 80.97611369 -24.09326172 80.95746613 C-25.2803775 80.95681672 -26.46749329 80.95616731 -27.69058228 80.95549822 C-31.33125507 80.34817978 -32.51205782 79.38406216 -34.69628906 76.45410156 C-36.05749386 68.4806635 -32.38270815 61.14819064 -29.58691406 53.81347656 C-29.05757826 52.39990859 -28.52908872 50.98602346 -28.00140381 49.57183838 C-26.89668874 46.62017611 -25.78283234 43.67218261 -24.66210938 40.7265625 C-23.22887894 36.95775769 -21.81739693 33.18124635 -20.41244888 29.40182114 C-19.32587554 26.48535677 -18.2286754 23.57298183 -17.1281662 20.66175079 C-16.60360377 19.27069505 -16.0821474 17.87846379 -15.56391144 16.48503876 C-14.83773821 14.53788396 -14.09759195 12.59662172 -13.35351562 10.65625 C-12.93604065 9.55230896 -12.51856567 8.44836792 -12.08843994 7.31097412 C-9.1485017 1.27784293 -6.66686776 -0.04938421 0 0 Z "  transform="translate(90.6962890625,399.5458984375)"/>
<path d="M0 0 C1.10794922 -0.01260864 2.21589844 -0.02521729 3.35742188 -0.03820801 C4.54916016 -0.03011108 5.74089844 -0.02201416 6.96875 -0.01367188 C8.19658203 -0.01749878 9.42441406 -0.02132568 10.68945312 -0.02526855 C13.28516459 -0.02799029 15.88090336 -0.02061099 18.4765625 -0.00390625 C22.45374599 0.01749738 26.42912282 -0.0037015 30.40625 -0.02929688 C32.92708733 -0.02665365 35.44792353 -0.02152878 37.96875 -0.01367188 C39.16048828 -0.0217688 40.35222656 -0.02986572 41.58007812 -0.03820801 C43.24200195 -0.01929504 43.24200195 -0.01929504 44.9375 0 C45.91138672 0.00318237 46.88527344 0.00636475 47.88867188 0.00964355 C51.21236397 0.66397185 52.40812783 1.87649269 54.46875 4.51757812 C54.92285156 7.54199219 54.92285156 7.54199219 54.859375 11.03320312 C54.84648437 12.28359375 54.83359375 13.53398438 54.8203125 14.82226562 C54.78679687 16.12421875 54.75328125 17.42617188 54.71875 18.76757812 C54.70070313 20.085 54.68265625 21.40242188 54.6640625 22.75976562 C54.61691271 26.0131012 54.55111044 29.26497437 54.46875 32.51757812 C55.78069336 32.49663086 57.09263672 32.47568359 58.44433594 32.45410156 C63.31206344 32.38169842 68.17974335 32.33577699 73.04785156 32.29785156 C75.15470382 32.27773687 77.26150025 32.25044145 79.36816406 32.21582031 C82.39662447 32.16729644 85.42434678 32.14460796 88.453125 32.12695312 C89.86582672 32.09598541 89.86582672 32.09598541 91.30706787 32.06439209 C92.18767883 32.06408997 93.06828979 32.06378784 93.97558594 32.06347656 C94.74835876 32.05459412 95.52113159 32.04571167 96.31732178 32.03656006 C99.46415515 32.74013162 100.58236154 33.9229641 102.46875 36.51757812 C102.97668457 39.70507813 102.97668457 39.70507813 102.98632812 43.51757812 C102.9933374 44.21399414 103.00034668 44.91041016 103.00756836 45.62792969 C103.02514196 47.92488744 103.01352919 50.22060833 103 52.51757812 C103.00269513 54.11653886 103.00657773 55.715498 103.01159668 57.31445312 C103.01749082 60.66357038 103.00893192 64.01226056 102.99023438 67.36132812 C102.96744435 71.65236403 102.98056796 75.94239924 103.00452423 80.23339844 C103.0189848 83.53458179 103.01437515 86.83552823 103.00401306 90.13671875 C103.00134646 91.71875121 103.00461322 93.30080524 103.01393127 94.8828125 C103.02410179 97.09497975 103.0085919 99.30553112 102.98632812 101.51757812 C102.98314575 102.77570313 102.97996338 104.03382813 102.97668457 105.33007812 C102.46875 108.51757812 102.46875 108.51757812 100.71722412 110.92669678 C98.18221832 112.72031024 97.04228077 113.00692905 93.97558594 112.97167969 C93.09497498 112.97137756 92.21436401 112.97107544 91.30706787 112.97076416 C90.36526672 112.95011902 89.42346558 112.92947388 88.453125 112.90820312 C87.48215881 112.90254333 86.51119263 112.89688354 85.51080322 112.89105225 C82.41294831 112.86868124 79.31625467 112.81848285 76.21875 112.76757812 C74.11720422 112.74751409 72.01564028 112.72926315 69.9140625 112.71289062 C64.7651783 112.66881393 59.61716097 112.59978071 54.46875 112.51757812 C54.5001709 113.39494629 54.5001709 113.39494629 54.53222656 114.29003906 C54.61555115 116.94904278 54.66745897 119.60777168 54.71875 122.26757812 C54.75226563 123.18796875 54.78578125 124.10835938 54.8203125 125.05664062 C54.87585113 128.88880631 54.89786022 131.68492966 53.125 135.125 C48.80686683 137.38884482 44.52052035 137.08706726 39.71875 137.04882812 C38.14335449 137.05456848 38.14335449 137.05456848 36.53613281 137.0604248 C34.31704753 137.06314508 32.09793026 137.05577589 29.87890625 137.0390625 C26.48104405 137.01765558 23.08529639 137.03886138 19.6875 137.06445312 C17.53124533 137.06180987 15.37499198 137.05668494 13.21875 137.04882812 C12.20200195 137.05692505 11.18525391 137.06502197 10.13769531 137.07336426 C6.23434957 137.02143689 3.32662032 136.96016555 -0.16992188 135.15625 C-2.39531275 130.84275923 -2.10057893 126.54923085 -2.0625 121.76757812 C-2.06824036 120.19218262 -2.06824036 120.19218262 -2.07409668 118.58496094 C-2.07681696 116.36587566 -2.06944777 114.14675838 -2.05273438 111.92773438 C-2.03132745 108.52987217 -2.05253325 105.13412451 -2.078125 101.73632812 C-2.07548175 99.58007345 -2.07035682 97.4238201 -2.0625 95.26757812 C-2.07059692 94.25083008 -2.07869385 93.23408203 -2.08703613 92.18652344 C-1.99441405 85.22418349 -1.99441405 85.22418349 0.20410156 81.87011719 C2.80759047 80.31520898 4.21995096 80.0496602 7.234375 80.12695312 C8.12382812 80.13984375 9.01328125 80.15273437 9.9296875 80.16601562 C10.85007812 80.19953125 11.77046875 80.23304687 12.71875 80.26757812 C13.65460938 80.285625 14.59046875 80.30367188 15.5546875 80.32226562 C17.85981438 80.36930903 20.16441354 80.44105035 22.46875 80.51757812 C22.46875 75.23757812 22.46875 69.95757812 22.46875 64.51757812 C20.49390625 64.56398438 18.5190625 64.61039062 16.484375 64.65820312 C13.89584843 64.695718 11.30730554 64.73211846 8.71875 64.76757812 C7.41679687 64.80109375 6.11484375 64.83460937 4.7734375 64.86914062 C3.52304687 64.88203125 2.27265625 64.89492187 0.984375 64.90820312 C-0.16772461 64.92915039 -1.31982422 64.95009766 -2.50683594 64.97167969 C-6.26405781 64.40755048 -7.19346284 63.45651276 -9.53125 60.51757812 C-10.03918457 57.9375 -10.03918457 57.9375 -10.04882812 54.98632812 C-10.06143677 53.87837891 -10.07404541 52.77042969 -10.08703613 51.62890625 C-10.07893921 50.43716797 -10.07084229 49.24542969 -10.0625 48.01757812 C-10.0663269 46.78974609 -10.07015381 45.56191406 -10.07409668 44.296875 C-10.07681842 41.70116353 -10.06943911 39.10542476 -10.05273438 36.50976562 C-10.03133075 32.53258213 -10.05252963 28.55720531 -10.078125 24.58007812 C-10.07548177 22.0592408 -10.07035691 19.53840459 -10.0625 17.01757812 C-10.07059692 15.82583984 -10.07869385 14.63410156 -10.08703613 13.40625 C-10.07442749 12.29830078 -10.06181885 11.19035156 -10.04882812 10.04882812 C-10.04564575 9.07494141 -10.04246338 8.10105469 -10.03918457 7.09765625 C-8.91711969 1.39807362 -5.396739 0.01763494 0 0 Z M6.46875 16.51757812 C6.46875 27.07757813 6.46875 37.63757813 6.46875 48.51757812 C11.74875 48.51757812 17.02875 48.51757812 22.46875 48.51757812 C22.571875 46.59945312 22.675 44.68132812 22.78125 42.70507812 C23.08063811 37.13645924 23.08063811 37.13645924 24.625 34.67382812 C27.27333367 33.01300871 29.55672774 32.99671911 32.65625 32.83007812 C34.574375 32.72695312 36.4925 32.62382813 38.46875 32.51757812 C38.46875 27.23757812 38.46875 21.95757812 38.46875 16.51757812 C27.90875 16.51757812 17.34875 16.51757812 6.46875 16.51757812 Z M38.46875 48.51757812 C38.46875 64.35757813 38.46875 80.19757813 38.46875 96.51757812 C54.30875 96.51757812 70.14875 96.51757812 86.46875 96.51757812 C86.46875 80.67757812 86.46875 64.83757812 86.46875 48.51757812 C70.62875 48.51757812 54.78875 48.51757812 38.46875 48.51757812 Z M14.46875 96.51757812 C14.46875 104.43757813 14.46875 112.35757813 14.46875 120.51757812 C22.38875 120.51757812 30.30875 120.51757812 38.46875 120.51757812 C38.46875 117.87757813 38.46875 115.23757812 38.46875 112.51757812 C37.22158203 112.46150391 37.22158203 112.46150391 35.94921875 112.40429688 C34.86253906 112.33855469 33.77585937 112.2728125 32.65625 112.20507812 C31.57730469 112.14707031 30.49835938 112.0890625 29.38671875 112.02929688 C26.46875 111.51757812 26.46875 111.51757812 24.625 110.36132812 C22.96418058 107.71299446 22.94789098 105.42960038 22.78125 102.33007812 C22.71550781 101.24339844 22.64976562 100.15671875 22.58203125 99.03710938 C22.54464844 98.20566406 22.50726563 97.37421875 22.46875 96.51757812 C19.82875 96.51757812 17.18875 96.51757812 14.46875 96.51757812 Z "  transform="translate(385.53125,31.482421875)"/>
<path d="M0 0 C0.69641602 -0.00700928 1.39283203 -0.01401855 2.11035156 -0.02124023 C4.40730932 -0.03881383 6.70303021 -0.02720107 9 -0.01367188 C10.59896073 -0.01636701 12.19791987 -0.0202496 13.796875 -0.02526855 C17.14599226 -0.03116269 20.49468243 -0.0226038 23.84375 -0.00390625 C28.13478591 0.01888377 32.42482111 0.00576017 36.71582031 -0.01819611 C40.01700366 -0.03265667 43.31795011 -0.02804703 46.61914062 -0.01768494 C48.20117308 -0.01501834 49.78322711 -0.0182851 51.36523438 -0.02760315 C53.57740163 -0.03777366 55.787953 -0.02226378 58 0 C59.8871875 0.00477356 59.8871875 0.00477356 61.8125 0.00964355 C65 0.51757812 65 0.51757812 67.40515137 2.11242676 C69.56880448 5.37537794 69.50770302 7.61353723 69.51757812 11.51757812 C69.5245874 12.21399414 69.53159668 12.91041016 69.53881836 13.62792969 C69.55639196 15.92488744 69.54477919 18.22060833 69.53125 20.51757812 C69.53394513 22.11653886 69.53782773 23.715498 69.54284668 25.31445312 C69.54874082 28.66357038 69.54018192 32.01226056 69.52148438 35.36132812 C69.49869435 39.65236403 69.51181796 43.94239924 69.53577423 48.23339844 C69.5502348 51.53458179 69.54562515 54.83552823 69.53526306 58.13671875 C69.53259646 59.71875121 69.53586322 61.30080524 69.54518127 62.8828125 C69.55535179 65.09497975 69.5398419 67.30553112 69.51757812 69.51757812 C69.51439575 70.77570313 69.51121338 72.03382813 69.50793457 73.33007812 C69 76.51757812 69 76.51757812 67.24847412 78.92669678 C64.71346832 80.72031024 63.57353077 81.00692905 60.50683594 80.97167969 C59.62622498 80.97137756 58.74561401 80.97107544 57.83831787 80.97076416 C56.89651672 80.95011902 55.95471558 80.92947388 54.984375 80.90820312 C54.01340881 80.90254333 53.04244263 80.89688354 52.04205322 80.89105225 C48.94419831 80.86868124 45.84750467 80.81848285 42.75 80.76757812 C40.64845422 80.74751409 38.54689028 80.72926315 36.4453125 80.71289062 C31.2964283 80.66881393 26.14841097 80.59978071 21 80.51757812 C21.0314209 81.75846191 21.0314209 81.75846191 21.06347656 83.02441406 C21.14661619 86.77201183 21.19865531 90.51941562 21.25 94.26757812 C21.28351563 95.56953125 21.31703125 96.87148437 21.3515625 98.21289062 C21.37089844 100.08847656 21.37089844 100.08847656 21.390625 102.00195312 C21.4220459 103.73010254 21.4220459 103.73010254 21.45410156 105.49316406 C20.88997235 109.25038593 19.93893464 110.17979097 17 112.51757812 C14.41992188 113.0255127 14.41992188 113.0255127 11.46875 113.03515625 C10.36080078 113.04776489 9.25285156 113.06037354 8.11132812 113.07336426 C6.91958984 113.06526733 5.72785156 113.05717041 4.5 113.04882812 C2.65825195 113.05456848 2.65825195 113.05456848 0.77929688 113.0604248 C-1.81641459 113.06314654 -4.41215336 113.05576724 -7.0078125 113.0390625 C-10.98499599 113.01765887 -14.96037282 113.03885775 -18.9375 113.06445312 C-21.45833733 113.0618099 -23.97917353 113.05668503 -26.5 113.04882812 C-28.28760742 113.06097351 -28.28760742 113.06097351 -30.11132812 113.07336426 C-31.21927734 113.06075562 -32.32722656 113.04814697 -33.46875 113.03515625 C-34.44263672 113.03197388 -35.41652344 113.0287915 -36.41992188 113.0255127 C-39.81107566 112.35790336 -40.97557128 111.29422637 -43 108.51757812 C-43.50793457 105.9375 -43.50793457 105.9375 -43.51757812 102.98632812 C-43.53018677 101.87837891 -43.54279541 100.77042969 -43.55578613 99.62890625 C-43.54768921 98.43716797 -43.53959229 97.24542969 -43.53125 96.01757812 C-43.5350769 94.78974609 -43.53890381 93.56191406 -43.54284668 92.296875 C-43.54556842 89.70116353 -43.53818911 87.10542476 -43.52148438 84.50976562 C-43.50008075 80.53258213 -43.52127963 76.55720531 -43.546875 72.58007812 C-43.54423177 70.0592408 -43.53910691 67.53840459 -43.53125 65.01757812 C-43.53934692 63.82583984 -43.54744385 62.63410156 -43.55578613 61.40625 C-43.54317749 60.29830078 -43.53056885 59.19035156 -43.51757812 58.04882812 C-43.51439575 57.07494141 -43.51121338 56.10105469 -43.50793457 55.09765625 C-42.85360628 51.77396415 -41.64108544 50.5782003 -39 48.51757812 C-35.97558594 48.06347656 -35.97558594 48.06347656 -32.484375 48.12695312 C-31.23398437 48.13984375 -29.98359375 48.15273437 -28.6953125 48.16601562 C-26.74238281 48.21628906 -26.74238281 48.21628906 -24.75 48.26757812 C-23.43257812 48.285625 -22.11515625 48.30367187 -20.7578125 48.32226562 C-17.50447692 48.36941542 -14.25260375 48.43521769 -11 48.51757812 C-11.02094727 47.20563477 -11.04189453 45.89369141 -11.06347656 44.54199219 C-11.1358797 39.67426469 -11.18180113 34.80658478 -11.21972656 29.93847656 C-11.23984126 27.83162431 -11.26713667 25.72482787 -11.30175781 23.61816406 C-11.35028168 20.58970366 -11.37297016 17.56198134 -11.390625 14.53320312 C-11.41127014 13.59140198 -11.43191528 12.64960083 -11.45318604 11.67926025 C-11.45348816 10.79864929 -11.45379028 9.91803833 -11.45410156 9.01074219 C-11.46298401 8.23796936 -11.47186646 7.46519653 -11.48101807 6.66900635 C-10.09475197 0.46871529 -5.59831027 0.01416068 0 0 Z M5 16.51757812 C5 32.35757813 5 48.19757813 5 64.51757812 C20.84 64.51757812 36.68 64.51757812 53 64.51757812 C53 48.67757812 53 32.83757812 53 16.51757812 C37.16 16.51757812 21.32 16.51757812 5 16.51757812 Z M-27 64.51757812 C-27 75.07757813 -27 85.63757813 -27 96.51757812 C-16.44 96.51757812 -5.88 96.51757812 5 96.51757812 C5 91.23757812 5 85.95757812 5 80.51757812 C1.97265625 80.35481771 -1.0546875 80.19205729 -4.08203125 80.02929688 C-7 79.51757812 -7 79.51757812 -8.84375 78.36132812 C-11.33709363 74.38545585 -10.7564277 69.0480229 -11 64.51757812 C-16.28 64.51757812 -21.56 64.51757812 -27 64.51757812 Z "  transform="translate(67,135.482421875)"/>
<path d="M0 0 C10.25043521 7.74112867 18.70526266 17.59173526 20.6875 30.6875 C21.96836177 44.82795902 21.06844427 57.71255554 12.4375 69.5625 C4.06048815 79.29647921 -6.30950268 87.6011099 -19.55273438 88.90869141 C-36.29194278 89.71018162 -48.24843021 87.01387295 -61.27734375 76.03125 C-69.90636197 68.02533375 -74.97975631 57.73921602 -75.62890625 46.03125 C-76.18819388 29.34451548 -72.52277041 17.35708981 -61 4.9375 C-44.70456176 -10.48496833 -18.58433045 -12.3339951 0 0 Z M-51.6875 20 C-52.60189765 21.20014692 -53.47797748 22.43050045 -54.3125 23.6875 C-54.725 24.30882812 -55.1375 24.93015625 -55.5625 25.5703125 C-59.3965359 32.57275306 -59.55079811 40.93367069 -58.3125 48.6875 C-55.24366396 58.58841626 -49.25642614 65.23241136 -40.25 70.125 C-32.35965975 73.27840588 -22.73309304 72.94051701 -14.8125 70.0625 C-6.30215712 66.00458817 -1.45066822 60.10270114 2.6875 51.6875 C5.43864015 43.61748891 4.60631259 33.54987259 0.99609375 25.9296875 C-4.24884802 16.94283205 -11.64813953 11.77665632 -21.734375 9.02734375 C-33.02744796 7.28532718 -43.98864761 11.68214441 -51.6875 20 Z "  transform="translate(283.3125,151.3125)"/>
<path d="M0 0 C1.10794922 -0.01260864 2.21589844 -0.02521729 3.35742188 -0.03820801 C4.54916016 -0.03011108 5.74089844 -0.02201416 6.96875 -0.01367188 C8.19658203 -0.01749878 9.42441406 -0.02132568 10.68945312 -0.02526855 C13.28516459 -0.02799029 15.88090336 -0.02061099 18.4765625 -0.00390625 C22.45374599 0.01749738 26.42912282 -0.0037015 30.40625 -0.02929688 C32.92708733 -0.02665365 35.44792353 -0.02152878 37.96875 -0.01367188 C39.16048828 -0.0217688 40.35222656 -0.02986572 41.58007812 -0.03820801 C43.24200195 -0.01929504 43.24200195 -0.01929504 44.9375 0 C45.91138672 0.00318237 46.88527344 0.00636475 47.88867188 0.00964355 C51.27982566 0.67725289 52.44432128 1.74092988 54.46875 4.51757812 C54.97668457 7.09765625 54.97668457 7.09765625 54.98632812 10.04882812 C54.99893677 11.15677734 55.01154541 12.26472656 55.02453613 13.40625 C55.01643921 14.59798828 55.00834229 15.78972656 55 17.01757812 C55.00574036 18.85932617 55.00574036 18.85932617 55.01159668 20.73828125 C55.01431842 23.33399272 55.00693911 25.92973149 54.99023438 28.52539062 C54.96883075 32.50257412 54.99002963 36.47795094 55.015625 40.45507812 C55.01298177 42.97591545 55.00785691 45.49675166 55 48.01757812 C55.00809692 49.20931641 55.01619385 50.40105469 55.02453613 51.62890625 C55.01192749 52.73685547 54.99931885 53.84480469 54.98632812 54.98632812 C54.98314575 55.96021484 54.97996338 56.93410156 54.97668457 57.9375 C54.30907524 61.32865378 53.24539824 62.4931494 50.46875 64.51757812 C47.88867188 65.0255127 47.88867188 65.0255127 44.9375 65.03515625 C43.82955078 65.04776489 42.72160156 65.06037354 41.58007812 65.07336426 C40.38833984 65.06526733 39.19660156 65.05717041 37.96875 65.04882812 C36.12700195 65.05456848 36.12700195 65.05456848 34.24804688 65.0604248 C31.65233541 65.06314654 29.05659664 65.05576724 26.4609375 65.0390625 C22.48375401 65.01765887 18.50837718 65.03885775 14.53125 65.06445312 C12.01041267 65.0618099 9.48957647 65.05668503 6.96875 65.04882812 C5.18114258 65.06097351 5.18114258 65.06097351 3.35742188 65.07336426 C2.24947266 65.06075562 1.14152344 65.04814697 0 65.03515625 C-0.97388672 65.03197388 -1.94777344 65.0287915 -2.95117188 65.0255127 C-6.34232566 64.35790336 -7.50682128 63.29422637 -9.53125 60.51757812 C-10.03918457 57.9375 -10.03918457 57.9375 -10.04882812 54.98632812 C-10.06143677 53.87837891 -10.07404541 52.77042969 -10.08703613 51.62890625 C-10.07893921 50.43716797 -10.07084229 49.24542969 -10.0625 48.01757812 C-10.0663269 46.78974609 -10.07015381 45.56191406 -10.07409668 44.296875 C-10.07681842 41.70116353 -10.06943911 39.10542476 -10.05273438 36.50976562 C-10.03133075 32.53258213 -10.05252963 28.55720531 -10.078125 24.58007812 C-10.07548177 22.0592408 -10.07035691 19.53840459 -10.0625 17.01757812 C-10.07059692 15.82583984 -10.07869385 14.63410156 -10.08703613 13.40625 C-10.07442749 12.29830078 -10.06181885 11.19035156 -10.04882812 10.04882812 C-10.04564575 9.07494141 -10.04246338 8.10105469 -10.03918457 7.09765625 C-8.91711969 1.39807362 -5.396739 0.01763494 0 0 Z M6.46875 16.51757812 C6.46875 27.07757813 6.46875 37.63757813 6.46875 48.51757812 C17.02875 48.51757812 27.58875 48.51757812 38.46875 48.51757812 C38.46875 37.95757812 38.46875 27.39757812 38.46875 16.51757812 C27.90875 16.51757812 17.34875 16.51757812 6.46875 16.51757812 Z "  transform="translate(233.53125,7.482421875)"/>
<path d="M0 0 C1.05026367 -0.0038269 2.10052734 -0.00765381 3.18261719 -0.01159668 C5.40170247 -0.01431696 7.62081974 -0.00694777 9.83984375 0.00976562 C13.23770595 0.03117255 16.63345361 0.00996675 20.03125 -0.015625 C22.18750467 -0.01298175 24.34375802 -0.00785682 26.5 0 C27.51674805 -0.00809692 28.53349609 -0.01619385 29.58105469 -0.02453613 C33.48440043 0.02739124 36.39212968 0.08866257 39.88867188 1.89257812 C42.11406275 6.2060689 41.81932893 10.49959728 41.78125 15.28125 C41.7850769 16.33151367 41.78890381 17.38177734 41.79284668 18.46386719 C41.79556696 20.68295247 41.78819777 22.90206974 41.77148438 25.12109375 C41.75007745 28.51895595 41.77128325 31.91470361 41.796875 35.3125 C41.79423175 37.46875467 41.78910682 39.62500802 41.78125 41.78125 C41.78934692 42.79799805 41.79744385 43.81474609 41.80578613 44.86230469 C41.75385876 48.76565043 41.69258743 51.67337968 39.88867188 55.16992188 C35.5751811 57.39531275 31.28165272 57.10057893 26.5 57.0625 C24.92460449 57.06824036 24.92460449 57.06824036 23.31738281 57.07409668 C21.09829753 57.07681696 18.87918026 57.06944777 16.66015625 57.05273438 C13.26229405 57.03132745 9.86654639 57.05253325 6.46875 57.078125 C4.31249533 57.07548175 2.15624198 57.07035682 0 57.0625 C-1.01674805 57.07059692 -2.03349609 57.07869385 -3.08105469 57.08703613 C-6.98440043 57.03510876 -9.89212968 56.97383743 -13.38867188 55.16992188 C-15.61406275 50.8564311 -15.31932893 46.56290272 -15.28125 41.78125 C-15.2850769 40.73098633 -15.28890381 39.68072266 -15.29284668 38.59863281 C-15.29556696 36.37954753 -15.28819777 34.16043026 -15.27148438 31.94140625 C-15.25007745 28.54354405 -15.27128325 25.14779639 -15.296875 21.75 C-15.29423175 19.59374533 -15.28910682 17.43749198 -15.28125 15.28125 C-15.28934692 14.26450195 -15.29744385 13.24775391 -15.30578613 12.20019531 C-15.25385876 8.29684957 -15.19258743 5.38912032 -13.38867188 1.89257812 C-9.0751811 -0.33281275 -4.78165272 -0.03807893 0 0 Z M1.25 16.53125 C1.25 24.45125 1.25 32.37125 1.25 40.53125 C9.17 40.53125 17.09 40.53125 25.25 40.53125 C25.25 32.61125 25.25 24.69125 25.25 16.53125 C17.33 16.53125 9.41 16.53125 1.25 16.53125 Z "  transform="translate(86.75,55.46875)"/>
<path d="M0 0 C0.87269531 -0.0038269 1.74539063 -0.00765381 2.64453125 -0.01159668 C4.48699092 -0.0143149 6.32948924 -0.00695994 8.171875 0.00976562 C10.99045934 0.03117752 13.80649485 0.00996199 16.625 -0.015625 C18.41667229 -0.01298171 20.20834299 -0.00785669 22 0 C22.84175781 -0.00809692 23.68351562 -0.01619385 24.55078125 -0.02453613 C28.13136419 0.03278396 30.39761762 0.18098442 33.52929688 2.00195312 C35.73374916 5.79314264 35.57275697 9.21617695 35.53125 13.53125 C35.5350769 14.40394531 35.53890381 15.27664063 35.54284668 16.17578125 C35.5455649 18.01824092 35.53820994 19.86073924 35.52148438 21.703125 C35.50007248 24.52170934 35.52128801 27.33774485 35.546875 30.15625 C35.54423171 31.94792229 35.53910669 33.73959299 35.53125 35.53125 C35.53934692 36.37300781 35.54744385 37.21476562 35.55578613 38.08203125 C35.49846604 41.66261419 35.35026558 43.92886762 33.52929688 47.06054688 C29.73810736 49.26499916 26.31507305 49.10400697 22 49.0625 C21.12730469 49.0663269 20.25460937 49.07015381 19.35546875 49.07409668 C17.51300908 49.0768149 15.67051076 49.06945994 13.828125 49.05273438 C11.00954066 49.03132248 8.19350515 49.05253801 5.375 49.078125 C3.58332771 49.07548171 1.79165701 49.07035669 0 49.0625 C-0.84175781 49.07059692 -1.68351562 49.07869385 -2.55078125 49.08703613 C-6.13136419 49.02971604 -8.39761762 48.88151558 -11.52929688 47.06054688 C-13.73374916 43.26935736 -13.57275697 39.84632305 -13.53125 35.53125 C-13.5350769 34.65855469 -13.53890381 33.78585937 -13.54284668 32.88671875 C-13.5455649 31.04425908 -13.53820994 29.20176076 -13.52148438 27.359375 C-13.50007248 24.54079066 -13.52128801 21.72475515 -13.546875 18.90625 C-13.54423171 17.11457771 -13.53910669 15.32290701 -13.53125 13.53125 C-13.53934692 12.68949219 -13.54744385 11.84773438 -13.55578613 10.98046875 C-13.49846604 7.39988581 -13.35026558 5.13363238 -11.52929688 2.00195312 C-7.73810736 -0.20249916 -4.31507305 -0.04150697 0 0 Z M3 16.53125 C3 21.81125 3 27.09125 3 32.53125 C8.28 32.53125 13.56 32.53125 19 32.53125 C19 27.25125 19 21.97125 19 16.53125 C13.72 16.53125 8.44 16.53125 3 16.53125 Z "  transform="translate(381,247.46875)"/>
<path d="M0 0 C5.28 0 10.56 0 16 0 C16 26.4 16 52.8 16 80 C10.72 80 5.44 80 0 80 C0 53.6 0 27.2 0 0 Z " transform="translate(200,312)"/>
<path d="M0 0 C5.28 0 10.56 0 16 0 C16 23.76 16 47.52 16 72 C10.72 72 5.44 72 0 72 C0 48.24 0 24.48 0 0 Z " transform="translate(296,320)"/>
<path d="M0 0 C5.28 0 10.56 0 16 0 C16 21.12 16 42.24 16 64 C10.72 64 5.44 64 0 64 C0 42.88 0 21.76 0 0 Z " transform="translate(264,376)"/>
<path d="M0 0 C5.28 0 10.56 0 16 0 C16 18.48 16 36.96 16 56 C10.72 56 5.44 56 0 56 C0 37.52 0 19.04 0 0 Z " transform="translate(264,304)"/>
<path d="M0 0 C5.28 0 10.56 0 16 0 C16 15.84 16 31.68 16 48 C10.72 48 5.44 48 0 48 C0 32.16 0 16.32 0 0 Z " transform="translate(232,304)"/>
<path d="M0 0 C5.28 0 10.56 0 16 0 C16 13.2 16 26.4 16 40 C10.72 40 5.44 40 0 40 C0 26.8 0 13.6 0 0 Z " transform="translate(232,400)"/>
<path d="M0 0 C5.28 0 10.56 0 16 0 C16 5.28 16 10.56 16 16 C10.72 16 5.44 16 0 16 C0 10.72 0 5.44 0 0 Z " transform="translate(296,408)"/>
<path d="M0 0 C5.28 0 10.56 0 16 0 C16 5.28 16 10.56 16 16 C10.72 16 5.44 16 0 16 C0 10.72 0 5.44 0 0 Z " transform="translate(200,408)"/>
<path d="M0 0 C5.28 0 10.56 0 16 0 C16 5.28 16 10.56 16 16 C10.72 16 5.44 16 0 16 C0 10.72 0 5.44 0 0 Z " transform="translate(232,368)"/>
</svg>
